/* XPM */
static char * irrlamb_xpm[] = {
"32 32 623 2",
"  	c None",
". 	c #0B173B",
"+ 	c #0D173A",
"@ 	c #0C1738",
"# 	c #0B1738",
"$ 	c #0B1C46",
"% 	c #0D1B30",
"& 	c #0D1B38",
"* 	c #0E1C41",
"= 	c #0F1D43",
"- 	c #0F1E40",
"; 	c #0F1E3C",
"> 	c #0E1D3B",
", 	c #0D1F45",
"' 	c #0F235C",
") 	c #0F2870",
"! 	c #0E2C77",
"~ 	c #101D32",
"{ 	c #112035",
"] 	c #11223A",
"^ 	c #122441",
"/ 	c #13254B",
"( 	c #14274F",
"_ 	c #14284C",
": 	c #152846",
"< 	c #142741",
"[ 	c #122646",
"} 	c #122655",
"| 	c #122968",
"1 	c #102D74",
"2 	c #102D79",
"3 	c #112D7B",
"4 	c #112139",
"5 	c #13243C",
"6 	c #162842",
"7 	c #182C49",
"8 	c #1A2F51",
"9 	c #1B315B",
"0 	c #1D3362",
"a 	c #1E3560",
"b 	c #1E365A",
"c 	c #1C3454",
"d 	c #1A3350",
"e 	c #193157",
"f 	c #193065",
"g 	c #173174",
"h 	c #143280",
"i 	c #133484",
"j 	c #113484",
"k 	c #122443",
"l 	c #132649",
"m 	c #16284D",
"n 	c #192D4E",
"o 	c #1D3253",
"p 	c #203759",
"q 	c #233C64",
"r 	c #253F71",
"s 	c #274179",
"t 	c #294277",
"u 	c #284371",
"v 	c #264369",
"w 	c #254163",
"x 	c #243F64",
"y 	c #223D6F",
"z 	c #203C7F",
"A 	c #1C3C8B",
"B 	c #193D90",
"C 	c #153C91",
"D 	c #133789",
"E 	c #162B56",
"F 	c #183063",
"G 	c #1C3367",
"H 	c #203867",
"I 	c #243E69",
"J 	c #29446F",
"K 	c #2E497B",
"L 	c #304D88",
"M 	c #334F8C",
"N 	c #355188",
"O 	c #355282",
"P 	c #34527B",
"Q 	c #325076",
"R 	c #314E78",
"S 	c #2E4B84",
"T 	c #2B4A93",
"U 	c #274A9E",
"V 	c #22479E",
"W 	c #1C429A",
"X 	c #173B8F",
"Y 	c #13317D",
"Z 	c #182B58",
"` 	c #1C336E",
" .	c #203B7E",
"..	c #243F83",
"+.	c #294483",
"@.	c #2E4A85",
"#.	c #34508D",
"$.	c #3A5799",
"%.	c #3D5CA1",
"&.	c #415FA1",
"*.	c #43609D",
"=.	c #446298",
"-.	c #436192",
";.	c #41608F",
">.	c #3F5E94",
",.	c #3B5C9F",
"'.	c #375AA9",
").	c #3056AC",
"!.	c #2950A9",
"~.	c #2249A2",
"{.	c #1B4096",
"].	c #153685",
"^.	c #112B6F",
"/.	c #14254E",
"(.	c #192D65",
"_.	c #213A82",
":.	c #264493",
"<.	c #2B4B99",
"[.	c #32519E",
"}.	c #3858A5",
"|.	c #405FAB",
"1.	c #4766B5",
"2.	c #4E6DBB",
"3.	c #5271BB",
"4.	c #5674BB",
"5.	c #5775B9",
"6.	c #5675B7",
"7.	c #5374B6",
"8.	c #5172B9",
"9.	c #4C70C0",
"0.	c #446DC3",
"a.	c #3B66BF",
"b.	c #335EBA",
"c.	c #2956B2",
"d.	c #214CA7",
"e.	c #194096",
"f.	c #13317A",
"g.	c #0F2560",
"h.	c #132454",
"i.	c #1A306A",
"j.	c #233E87",
"k.	c #2A4A9B",
"l.	c #3254A6",
"m.	c #3A5EB1",
"n.	c #4365BA",
"o.	c #4B6DC0",
"p.	c #5577CA",
"q.	c #5E80D3",
"r.	c #6587D8",
"s.	c #6A8BDC",
"t.	c #6E8EDD",
"u.	c #6D8FDD",
"v.	c #6A8FDE",
"w.	c #658CDF",
"x.	c #5E89E2",
"y.	c #5583E1",
"z.	c #4A7BDD",
"A.	c #3F72D7",
"B.	c #3266CD",
"C.	c #275ABD",
"D.	c #1F4BA7",
"E.	c #173988",
"F.	c #112B6C",
"G.	c #0E1E4E",
"H.	c #132658",
"I.	c #1A326D",
"J.	c #244088",
"K.	c #2E4E9F",
"L.	c #385BAF",
"M.	c #4266BB",
"N.	c #4C70C5",
"O.	c #567ACF",
"P.	c #6488DC",
"Q.	c #7096E9",
"R.	c #7A9FF0",
"S.	c #81A3F3",
"T.	c #85A8F5",
"U.	c #85ABF6",
"V.	c #82AAF7",
"W.	c #7BA5F7",
"X.	c #709EF7",
"Y.	c #6495F6",
"Z.	c #578DF4",
"`.	c #4A83EE",
" +	c #3A74E1",
".+	c #2D62CA",
"++	c #2451AE",
"@+	c #1A3F92",
"#+	c #143075",
"$+	c #11265D",
"%+	c #0D214B",
"&+	c #142958",
"*+	c #1C356E",
"=+	c #264387",
"-+	c #31519E",
";+	c #3C5FB0",
">+	c #486BBD",
",+	c #5578CC",
"'+	c #6487DC",
")+	c #7499EC",
"!+	c #83A9F7",
"~+	c #90B3FC",
"{+	c #98B9FC",
"]+	c #9EBFFC",
"^+	c #9EC2FD",
"/+	c #98BFFE",
"(+	c #8FB6FF",
"_+	c #81ABFE",
":+	c #71A1FD",
"<+	c #6197FB",
"[+	c #518BF5",
"}+	c #4179E4",
"|+	c #3364C9",
"1+	c #2751A9",
"2+	c #1D3F8E",
"3+	c #163072",
"4+	c #112559",
"5+	c #0F2449",
"6+	c #152C56",
"7+	c #1E386C",
"8+	c #274681",
"9+	c #325394",
"0+	c #3F62A7",
"a+	c #4D6FBA",
"b+	c #5E7FCF",
"c+	c #7091E4",
"d+	c #82A5F5",
"e+	c #94B7FC",
"f+	c #A6C6FE",
"g+	c #B8D1FC",
"h+	c #C0D9FC",
"i+	c #BDDAFC",
"j+	c #B1D1FD",
"k+	c #A2C4FE",
"l+	c #90B5FE",
"m+	c #7CA7FC",
"n+	c #6899FA",
"o+	c #578AEF",
"p+	c #4476DA",
"q+	c #3660BD",
"r+	c #2A4C9C",
"s+	c #203B81",
"t+	c #172D68",
"u+	c #112253",
"v+	c #0E2253",
"w+	c #122750",
"x+	c #19305B",
"y+	c #213B6F",
"z+	c #2A497F",
"A+	c #36558D",
"B+	c #44639D",
"C+	c #5472B4",
"D+	c #6783CF",
"E+	c #7B98E6",
"F+	c #8FAEF7",
"G+	c #A6C4FC",
"H+	c #C2DAFD",
"I+	c #DCEBFC",
"J+	c #E6F3FB",
"K+	c #E1F1FC",
"L+	c #CDE4FD",
"M+	c #B3D0FE",
"N+	c #9BBCFE",
"O+	c #84A9FA",
"P+	c #6E97F0",
"Q+	c #5883DE",
"R+	c #466EC6",
"S+	c #3759AB",
"T+	c #2A478E",
"U+	c #203875",
"V+	c #172A60",
"W+	c #11204E",
"X+	c #10255F",
"Y+	c #142A5D",
"Z+	c #1B3367",
"`+	c #244079",
" @	c #2E4C86",
".@	c #3A5991",
"+@	c #48679E",
"@@	c #5977B4",
"#@	c #6E89CF",
"$@	c #859EE8",
"%@	c #9BB6F8",
"&@	c #B6D0FC",
"*@	c #DBEBFD",
"=@	c #F3FBFC",
"-@	c #FAFDFB",
";@	c #F5FCFC",
">@	c #E3F1FD",
",@	c #C1D9FE",
"'@	c #A2BFFA",
")@	c #88A7F0",
"!@	c #7091DC",
"~@	c #587AC4",
"{@	c #4565AF",
"]@	c #36539A",
"^@	c #294384",
"/@	c #1E3470",
"(@	c #15275C",
"_@	c #101D4A",
":@	c #0C173D",
"<@	c #112769",
"[@	c #162C69",
"}@	c #1D3572",
"|@	c #274383",
"1@	c #32508E",
"2@	c #3E5D97",
"3@	c #4D6BA3",
"4@	c #5F7BB6",
"5@	c #748DCE",
"6@	c #8BA4E7",
"7@	c #A3BCF7",
"8@	c #C1D7FC",
"9@	c #E6F1FD",
"0@	c #F9FDFC",
"a@	c #FEFFFD",
"b@	c #FBFEFD",
"c@	c #EAF2FC",
"d@	c #C8D9FA",
"e@	c #A6BDF2",
"f@	c #8AA3DE",
"g@	c #6F8AC4",
"h@	c #5774AD",
"i@	c #42619C",
"j@	c #334F8E",
"k@	c #263F7E",
"l@	c #1C316C",
"m@	c #132459",
"n@	c #0D1B45",
"o@	c #0A1538",
"p@	c #12286C",
"q@	c #162D6E",
"r@	c #1E3779",
"s@	c #284588",
"t@	c #345294",
"u@	c #415F9B",
"v@	c #516EA5",
"w@	c #647FB5",
"x@	c #7A91C8",
"y@	c #90A6E0",
"z@	c #A7BCF3",
"A@	c #C3D5FC",
"B@	c #E3EDFD",
"C@	c #F6FBFD",
"D@	c #FBFEFC",
"E@	c #F8FAFD",
"F@	c #E5ECFC",
"G@	c #C4D1F6",
"H@	c #A5B6E8",
"I@	c #899ED1",
"J@	c #6E88B6",
"K@	c #5471A0",
"L@	c #405E91",
"M@	c #304C85",
"N@	c #233C77",
"O@	c #1A2D65",
"P@	c #12214F",
"Q@	c #0C193C",
"R@	c #091333",
"S@	c #122765",
"T@	c #152C69",
"U@	c #1D3775",
"V@	c #284485",
"W@	c #345290",
"X@	c #426198",
"Y@	c #5370A2",
"Z@	c #6781AE",
"`@	c #7E93C0",
" #	c #94A6D6",
".#	c #AABAEE",
"+#	c #BFCFFB",
"@#	c #D6E5FD",
"##	c #E8F3FD",
"$#	c #EEF6FC",
"%#	c #E7EFFD",
"&#	c #D4DEFB",
"*#	c #B9C5F4",
"=#	c #9FAFE2",
"-#	c #869ACB",
";#	c #6B84B3",
">#	c #526F9D",
",#	c #3E5B8B",
"'#	c #2E497C",
")#	c #22386C",
"!#	c #182A58",
"~#	c #111E40",
"{#	c #0B172F",
"]#	c #152958",
"^#	c #1C3466",
"/#	c #274379",
"(#	c #345286",
"_#	c #436090",
":#	c #54709A",
"<#	c #6881A9",
"[#	c #7E93BC",
"}#	c #94A6D5",
"|#	c #A9B9EE",
"1#	c #B9CBFB",
"2#	c #C7DAFE",
"3#	c #D2E4FE",
"4#	c #D4E5FD",
"5#	c #CDDCFC",
"6#	c #BECCF9",
"7#	c #ACB9ED",
"8#	c #97A7DA",
"9#	c #7F94C4",
"0#	c #6880AE",
"a#	c #506B98",
"b#	c #3D5884",
"c#	c #2C4671",
"d#	c #1F365D",
"e#	c #162847",
"f#	c #0F1C33",
"g#	c #0B1527",
"h#	c #142745",
"i#	c #1A3154",
"j#	c #254068",
"k#	c #334F7B",
"l#	c #425F88",
"m#	c #536E95",
"n#	c #6580A7",
"o#	c #7A90BE",
"p#	c #8FA2D7",
"q#	c #A1B4EF",
"r#	c #AFC4FB",
"s#	c #B9CDFD",
"t#	c #BED2FD",
"u#	c #BDD0FB",
"v#	c #B6C8F8",
"w#	c #ACBBEF",
"x#	c #9DACDE",
"y#	c #8A9CCA",
"z#	c #758BB8",
"A#	c #5F79A5",
"B#	c #4B6790",
"C#	c #39547A",
"D#	c #2A4365",
"E#	c #1E334F",
"F#	c #15253B",
"G#	c #0E1B2C",
"H#	c #0A1422",
"I#	c #13253B",
"J#	c #182F47",
"K#	c #233C5B",
"L#	c #314C70",
"M#	c #405C81",
"N#	c #506B90",
"O#	c #607AA3",
"P#	c #728AB9",
"Q#	c #8499D1",
"R#	c #94A9E5",
"S#	c #A0B4F1",
"T#	c #A8BBF3",
"U#	c #ABBDF2",
"V#	c #A9B9EF",
"W#	c #A2B3E9",
"X#	c #98AADB",
"Y#	c #8B9DC9",
"Z#	c #798FB8",
"`#	c #6780AA",
" $	c #446086",
".$	c #354F71",
"+$	c #283E5C",
"@$	c #1C2F48",
"#$	c #132235",
"$$	c #0C1928",
"%$	c #182C41",
"&$	c #203853",
"*$	c #2D4767",
"=$	c #3C5679",
"-$	c #4A6489",
";$	c #59729B",
">$	c #778EC1",
",$	c #8399D2",
"'$	c #8EA2DC",
")$	c #94A6DD",
"!$	c #95A6DA",
"~$	c #92A5D6",
"{$	c #8C9FCF",
"]$	c #8397C2",
"^$	c #778DB3",
"/$	c #6881A6",
"($	c #58739A",
"_$	c #48658C",
":$	c #3A577A",
"<$	c #2E4867",
"[$	c #233855",
"}$	c #192B43",
"|$	c #101F32",
"1$	c #0C1826",
"2$	c #162A41",
"3$	c #1E344E",
"4$	c #294060",
"5$	c #364D73",
"6$	c #435B84",
"7$	c #506793",
"8$	c #5D75A3",
"9$	c #6880B1",
"0$	c #7289BB",
"a$	c #798FC0",
"b$	c #7E92C0",
"c$	c #7E92BB",
"d$	c #7B90B7",
"e$	c #758CB2",
"f$	c #6D84A8",
"g$	c #637B9E",
"h$	c #577194",
"i$	c #4A658B",
"j$	c #3C597F",
"k$	c #314D6F",
"l$	c #26405E",
"m$	c #1D344D",
"n$	c #15273C",
"o$	c #0F1D2F",
"p$	c #0B1727",
"q$	c #1C2F51",
"r$	c #243861",
"s$	c #2E4372",
"t$	c #3A5081",
"u$	c #445C8E",
"v$	c #4F679A",
"w$	c #5871A4",
"x$	c #6078A9",
"y$	c #657CA8",
"z$	c #677DA4",
"A$	c #667CA0",
"B$	c #637B9D",
"C$	c #5E789A",
"D$	c #577296",
"E$	c #506B8F",
"F$	c #476289",
"G$	c #3C5882",
"H$	c #314E77",
"I$	c #284468",
"J$	c #1F3857",
"K$	c #172C45",
"L$	c #122336",
"M$	c #0D1C2C",
"N$	c #1F336A",
"O$	c #263B78",
"P$	c #2E4783",
"Q$	c #38528D",
"R$	c #425C98",
"S$	c #49639F",
"T$	c #4E68A2",
"U$	c #516B9F",
"V$	c #526C9B",
"W$	c #506A96",
"X$	c #4D6993",
"Y$	c #4B6593",
"Z$	c #456193",
"`$	c #3E5B90",
" %	c #385389",
".%	c #304C7F",
"+%	c #284373",
"@%	c #203961",
"#%	c #19304E",
"$%	c #13273D",
"%%	c #0F1F31",
"&%	c #1E3A83",
"*%	c #25448D",
"=%	c #2D4C96",
"-%	c #3555A0",
";%	c #3B5BA6",
">%	c #3E5EA8",
",%	c #4060A8",
"'%	c #3F61A7",
")%	c #3E60A3",
"!%	c #3C5C9F",
"~%	c #3A599E",
"{%	c #35569C",
"]%	c #314F97",
"^%	c #2C478C",
"/%	c #263F7C",
"(%	c #203769",
"_%	c #1A2F55",
":%	c #152843",
"<%	c #102136",
"[%	c #1F479B",
"}%	c #264DA4",
"|%	c #2A52AA",
"1%	c #2D55AD",
"2%	c #3058B0",
"3%	c #315BB4",
"4%	c #325CB5",
"5%	c #305BB4",
"6%	c #2E58B0",
"7%	c #2D55AB",
"8%	c #2B4FA4",
"9%	c #274697",
"0%	c #223C84",
"a%	c #1D336C",
"b%	c #182C56",
"c%	c #152746",
"d%	c #12223A",
"e%	c #204EAE",
"f%	c #2251AE",
"g%	c #2351AE",
"h%	c #2351AD",
"i%	c #2551AF",
"j%	c #2551AE",
"k%	c #244FAB",
"l%	c #234CA7",
"m%	c #2249A0",
"n%	c #214293",
"o%	c #1E3981",
"p%	c #19316D",
"q%	c #142A56",
"r%	c #122544",
"s%	c #11213B",
"t%	c #1C4CAB",
"u%	c #1B49A5",
"v%	c #1A459E",
"w%	c #193B8E",
"x%	c #193986",
"y%	c #18357C",
"z%	c #17316F",
"A%	c #162C62",
"B%	c #132856",
"C%	c #102448",
"D%	c #132E77",
"E%	c #14296B",
"F%	c #13275F",
"                                                                ",
"                                                                ",
"                            . + @ # $                           ",
"                      % & * = - ; > , ' ) !                     ",
"                  ~ { ] ^ / ( _ : < [ } | 1 2 3                 ",
"                4 5 6 7 8 9 0 a b c d e f g h i j               ",
"            k l m n o p q r s t u v w x y z A B C D             ",
"            E F G H I J K L M N O P Q R S T U V W X Y           ",
"          Z `  ...+.@.#.$.%.&.*.=.-.;.>.,.'.).!.~.{.].^.        ",
"        /.(._.:.<.[.}.|.1.2.3.4.5.6.7.8.9.0.a.b.c.d.e.f.g.      ",
"        h.i.j.k.l.m.n.o.p.q.r.s.t.u.v.w.x.y.z.A.B.C.D.E.F.      ",
"      G.H.I.J.K.L.M.N.O.P.Q.R.S.T.U.V.W.X.Y.Z.`. +.+++@+#+$+    ",
"      %+&+*+=+-+;+>+,+'+)+!+~+{+]+^+/+(+_+:+<+[+}+|+1+2+3+4+    ",
"      5+6+7+8+9+0+a+b+c+d+e+f+g+h+i+j+k+l+m+n+o+p+q+r+s+t+u+    ",
"    v+w+x+y+z+A+B+C+D+E+F+G+H+I+J+K+L+M+N+O+P+Q+R+S+T+U+V+W+    ",
"    X+Y+Z+`+ @.@+@@@#@$@%@&@*@=@-@;@>@,@'@)@!@~@{@]@^@/@(@_@:@  ",
"    <@[@}@|@1@2@3@4@5@6@7@8@9@0@a@b@c@d@e@f@g@h@i@j@k@l@m@n@o@  ",
"    p@q@r@s@t@u@v@w@x@y@z@A@B@C@D@E@F@G@H@I@J@K@L@M@N@O@P@Q@R@  ",
"    S@T@U@V@W@X@Y@Z@`@ #.#+#@###$#%#&#*#=#-#;#>#,#'#)#!#~#{#    ",
"      ]#^#/#(#_#:#<#[#}#|#1#2#3#4#5#6#7#8#9#0#a#b#c#d#e#f#g#    ",
"      h#i#j#k#l#m#n#o#p#q#r#s#t#u#v#w#x#y#z#A#B#C#D#E#F#G#H#    ",
"      I#J#K#L#M#N#O#P#Q#R#S#T#U#V#W#X#Y#Z#`#:# $.$+$@$#$$$      ",
"        %$&$*$=$-$;$0#>$,$'$)$!$~${$]$^$/$($_$:$<$[$}$|$1$      ",
"        2$3$4$5$6$7$8$9$0$a$b$c$d$e$f$g$h$i$j$k$l$m$n$o$p$      ",
"          q$r$s$t$u$v$w$x$y$z$A$B$C$D$E$F$G$H$I$J$K$L$M$        ",
"            N$O$P$Q$R$S$T$U$V$W$X$Y$Z$`$ %.%+%@%#%$%%%          ",
"              &%*%=%-%;%>%,%'%)%!%~%{%]%^%/%(%_%:%<%            ",
"                [%}%|%1%2%3%4%5%6%7%8%9%0%a%b%c%d%              ",
"                  e%f%g%h%i%j%k%l%m%n%o%p%q%r%s%                ",
"                      t%u%v%e.w%x%y%z%A%B%C%                    ",
"                              D%E%F%                            ",
"                                                                "};
